# xmcd
#
# Track frame offsets: 
#        150
#        10388
#        19838
#        31389
#        45040
#        61353
#        80590
#        92778
#        112579
#        130880
#        140368
#        157319
#        175432
#        189495
#        206933
#        216721
#        234272
#        249198
#        259099
#
# Disc length: 3703 seconds
#
# Revision: 2
# Processed by: cddbd v1.5.2PL0 Copyright (c) Steve Scherf et al.
# Submitted via: ExactAudioCopy v1.0b3
#
DISCID=080e7513
DTITLE=Diverse - Country Roads Christmas
DYEAR=2015
DGENRE=Christmas
TTITLE0=John Denver - Have yourself a merry little christmas
TTITLE1=The Nashville Session Singers - We wish you a merry christmas
TTITLE2=Melba Montgomery - Hark! The Herald Angels sing
TTITLE3=Sandy Posey - It came upon a midnight clear
TTITLE4=Billy Walker - White Christmas
TTITLE5=Johnny Cash - The first noel
TTITLE6=Jeannie Seely - What child is this
TTITLE7=Nat Stuckey - Little Drummer Boy
TTITLE8=Margo Smith - The twelve days of christmas
TTITLE9=Bobby Helms - Jingle Bell Rock
TTITLE10=Willie Nelson - Pretty Paper
TTITLE11=Donna Fargo - Oh little town of Bethlehem
TTITLE12=Waylon Jennings - Away in a manger
TTITLE13=Kenny Rogers - Pretty little baby child
TTITLE14=Charley Pride - Christmas is my home town
TTITLE15=Ronnie Milsap - Holy Night
TTITLE16=Lynn Anderson - Joy to the world
TTITLE17=Patti Page - Jingle Bells
TTITLE18=Elvis Presley - Old Shep
EXTD=
EXTT0=
EXTT1=
EXTT2=
EXTT3=
EXTT4=
EXTT5=
EXTT6=
EXTT7=
EXTT8=
EXTT9=
EXTT10=
EXTT11=
EXTT12=
EXTT13=
EXTT14=
EXTT15=
EXTT16=
EXTT17=
EXTT18=
PLAYORDER=
